<?xml version="1.0" encoding="UTF-8" standalone="no"?>
<svg
   xmlns:dc="http://purl.org/dc/elements/1.1/"
   xmlns:cc="http://creativecommons.org/ns#"
   xmlns:rdf="http://www.w3.org/1999/02/22-rdf-syntax-ns#"
   xmlns:svg="http://www.w3.org/2000/svg"
   xmlns="http://www.w3.org/2000/svg"
   width="128.39836mm"
   height="127.86713mm"
   viewBox="0 0 128.39837 127.86713"
   version="1.1"
   id="svg8">
  <metadata
     id="metadata15">
    <rdf:RDF>
      <cc:Work
         rdf:about="">
        <dc:format>image/svg+xml</dc:format>
        <dc:type
           rdf:resource="http://purl.org/dc/dcmitype/StillImage" />
        <dc:title></dc:title>
      </cc:Work>
    </rdf:RDF>
  </metadata>
  <defs
     id="defs13" />
  <path
     id="stone"
     transform="scale(0.26458335)"
     d="M 0,0 V 483.27734 H 485.28516 V 0 Z m 144.44922,184.94531 h 196.39062 l -98.19531,170.07813 z"
     style="opacity:1;fill:#817e81;fill-opacity:0.4745098;stroke:none;stroke-width:3.9100647;stroke-linecap:round;stroke-linejoin:miter;stroke-miterlimit:4;stroke-dasharray:none;stroke-dashoffset:0;stroke-opacity:1" />
  <path
     style="opacity:1;fill:none;fill-opacity:0.99607843;stroke:none;stroke-width:0.26499999;stroke-linecap:round;stroke-linejoin:miter;stroke-miterlimit:4;stroke-dasharray:none;stroke-dashoffset:0;stroke-opacity:1"
     d="M 90.179744,78.933858 Z"
     id="axle2" />
  <path
     id="axle3"
     d="M 38.21814,78.933857 Z"
     style="opacity:1;fill:none;fill-opacity:0.99607843;stroke:none;stroke-width:0.26499999;stroke-linecap:round;stroke-linejoin:miter;stroke-miterlimit:4;stroke-dasharray:none;stroke-dashoffset:0;stroke-opacity:1" />
  <path
     id="blade1"
     d="m 44.02003,24.842644 a 8.4716837,8.4716837 0 0 0 2.080772,11.798543 8.4716837,8.4716837 0 0 0 11.633534,-1.867638 c 6.390855,2.388736 12.532355,3.883793 19.444402,6.179254 l 32.763732,17.878817 1.10916,-1.120961 -18.369505,-39.39361 c -0.590832,-0.04185 -1.181462,-0.06457 -1.771328,-0.07132 L 78.364912,36.163103 77.737343,36.730517 72.038558,33.620854 C 67.795657,31.954952 63.67396,30.724703 59.418866,29.455915 A 8.4716837,8.4716837 0 0 0 55.818995,22.762168 8.4716837,8.4716837 0 0 0 44.02003,24.842644 Z m 18.857736,8.218069 c 0.114791,-0.173302 0.262297,-0.321588 0.433063,-0.437388 0.01217,-0.0083 0.02514,-0.01505 0.03751,-0.02294 0.04011,-0.0256 0.08154,-0.04961 0.123924,-0.07157 0.01894,-0.0098 0.03812,-0.01892 0.05741,-0.02793 0.04498,-0.02105 0.09102,-0.03982 0.138062,-0.05662 0.01219,-0.0044 0.02389,-0.0098 0.03616,-0.0138 0.05889,-0.0194 0.119356,-0.03505 0.180862,-0.04748 0.01717,-0.0035 0.03467,-0.0055 0.05194,-0.0084 0.0488,-0.0082 0.09816,-0.01441 0.148216,-0.01797 0.01739,-0.0013 0.03466,-0.0026 0.05211,-0.0033 0.0658,-0.0025 0.132169,-0.0025 0.199483,0.0034 0.326716,0.02857 0.621524,0.154136 0.85842,0.346209 0,0 4.25e-4,2.97e-4 4.25e-4,2.97e-4 0.03934,0.03191 0.07721,0.06594 0.113232,0.101364 0.07229,0.07109 0.137472,0.148882 0.194961,0.232406 0.05749,0.08352 0.107122,0.172659 0.147883,0.266306 0.04076,0.09365 0.07268,0.192005 0.09479,0.293479 0.03316,0.152211 0.04424,0.311851 0.03,0.475216 l -1.577551,-0.138147 1.016125,1.211133 c -0.04267,0.03581 -0.08611,0.07046 -0.132353,0.101628 -0.0061,0.0041 -0.0126,0.0074 -0.01876,0.01147 -0.04501,0.02945 -0.0917,0.05659 -0.13963,0.08139 -0.01862,0.0096 -0.03746,0.01854 -0.05639,0.02738 -0.04497,0.02105 -0.09102,0.03982 -0.138062,0.05662 -0.01219,0.0044 -0.02389,0.0098 -0.03616,0.0138 -0.05888,0.0194 -0.119356,0.03505 -0.180862,0.04748 -0.01717,0.0035 -0.03467,0.0055 -0.05194,0.0084 -0.0488,0.0082 -0.09817,0.01441 -0.148216,0.01797 -0.01739,0.0013 -0.03466,0.0026 -0.05211,0.0033 -0.0658,0.0025 -0.132168,0.0025 -0.199484,-0.0034 -0.326712,-0.02857 -0.621523,-0.154136 -0.85842,-0.346209 0,0 -4.22e-4,-2.96e-4 -4.22e-4,-2.96e-4 -0.03948,-0.03203 -0.0771,-0.06579 -0.113234,-0.101365 -0.07229,-0.07109 -0.137472,-0.148882 -0.194961,-0.232405 -0.05748,-0.08354 -0.10714,-0.172648 -0.147881,-0.266305 -0.04076,-0.09365 -0.07268,-0.192006 -0.09479,-0.29348 -0.03312,-0.152219 -0.0443,-0.311858 -0.03,-0.475216 0.02389,-0.272193 0.115671,-0.522178 0.256652,-0.735026 z"
     style="opacity:1;fill:#817e81;fill-opacity:0.4745098;stroke:none;stroke-width:0.26500002;stroke-linecap:round;stroke-linejoin:miter;stroke-miterlimit:4;stroke-dasharray:none;stroke-dashoffset:0;stroke-opacity:1" />
  <path
     style="opacity:1;fill:#817e81;fill-opacity:0.4745098;stroke:none;stroke-width:0.26500002;stroke-linecap:round;stroke-linejoin:miter;stroke-miterlimit:4;stroke-dasharray:none;stroke-dashoffset:0;stroke-opacity:1"
     d="m 108.25871,66.078824 a 8.4716837,8.4716837 0 0 0 -11.258216,-4.09727 8.4716837,8.4716837 0 0 0 -4.199347,11.008754 c -5.264134,4.340275 -9.629641,8.911442 -15.073592,13.74972 l -31.865378,19.434822 0.416201,1.52104 43.300622,3.78834 c 0.331658,-0.49075 0.646649,-0.99089 0.947428,-1.49835 l -9.243959,-19.823746 -0.17761,-0.827197 5.54244,-3.380461 c 3.564164,-2.841509 6.690439,-5.795879 9.916785,-8.846505 a 8.4716837,8.4716837 0 0 0 7.596886,0.229294 8.4716837,8.4716837 0 0 0 4.09774,-11.258441 z M 91.712791,78.301068 c 0.09269,0.186062 0.147355,0.387949 0.162258,0.593737 0.0011,0.01469 4.63e-4,0.0293 0.0011,0.04396 0.0021,0.04754 0.0022,0.09542 2e-5,0.143106 -9.83e-4,0.0213 -0.0027,0.04247 -0.0045,0.06368 -0.0043,0.04948 -0.01103,0.09873 -0.02,0.147875 -0.0023,0.01276 -0.0035,0.02559 -0.0061,0.03821 -0.01264,0.0607 -0.02932,0.120891 -0.04931,0.180371 -0.0056,0.01662 -0.01257,0.03278 -0.01869,0.04918 -0.0173,0.04636 -0.0366,0.09221 -0.05855,0.137343 -0.0076,0.01571 -0.01508,0.03132 -0.0232,0.04678 -0.03073,0.05824 -0.06392,0.115712 -0.102686,0.171057 -0.1881,0.26866 -0.444248,0.461188 -0.729036,0.570309 0,0 -4.69e-4,2.2e-4 -4.69e-4,2.2e-4 -0.04731,0.01811 -0.09571,0.0339 -0.1444,0.04738 -0.09771,0.02706 -0.197672,0.04461 -0.29875,0.05264 -0.101076,0.008 -0.203088,0.0064 -0.304569,-0.0051 -0.101484,-0.01152 -0.202622,-0.03306 -0.301556,-0.06465 -0.148398,-0.04739 -0.292191,-0.117612 -0.426549,-0.211627 l 0.908415,-1.297126 -1.556935,0.274424 c -0.0097,-0.05486 -0.01796,-0.109803 -0.02184,-0.165435 -5.01e-4,-0.0073 -1.08e-4,-0.01461 -5.53e-4,-0.02198 -0.003,-0.0537 -0.0032,-0.107709 -6.71e-4,-0.161618 9.96e-4,-0.02093 0.0027,-0.04171 0.0045,-0.06253 0.0043,-0.04947 0.01103,-0.09874 0.02,-0.147875 0.0023,-0.01276 0.0035,-0.02559 0.0061,-0.03822 0.01264,-0.06069 0.02932,-0.12089 0.04931,-0.180371 0.0056,-0.01662 0.01257,-0.03278 0.0187,-0.04918 0.0173,-0.04636 0.03661,-0.09222 0.05855,-0.137344 0.0076,-0.01571 0.01508,-0.03132 0.0232,-0.04678 0.03073,-0.05823 0.06392,-0.115711 0.102686,-0.171059 0.188099,-0.268656 0.444248,-0.461186 0.729036,-0.570309 0,0 4.68e-4,-2.17e-4 4.68e-4,-2.17e-4 0.04748,-0.01818 0.09552,-0.03388 0.144401,-0.04738 0.09771,-0.02706 0.197672,-0.04461 0.298749,-0.05264 0.101088,-0.008 0.203088,-0.0065 0.304568,0.0051 0.101483,0.01153 0.202622,0.03306 0.301556,0.06465 0.148385,0.04743 0.292227,0.117564 0.426549,0.211628 0.223781,0.156785 0.394384,0.361263 0.508225,0.58978 z"
     id="blade2" />
  <path
     id="blade3"
     d="m 40.43425,100.95463 a 8.4716837,8.4716837 0 0 0 9.177448,-7.701264 8.4716837,8.4716837 0 0 0 -7.434187,-9.141118 C 41.05079,77.383236 39.274796,71.317013 37.8067,64.183274 L 36.90834,26.869636 35.38298,26.469557 10.45187,62.074825 c 0.259173,0.5326 0.534811,1.05546 0.823895,1.569672 l 21.789847,1.90637 0.805179,0.259784 0.156345,6.490124 c 0.678737,4.507411 1.674159,8.69203 2.702906,13.01144 a 8.4716837,8.4716837 0 0 0 -3.997018,6.464449 8.4716837,8.4716837 0 0 0 7.701226,9.177966 z M 38.122436,80.514324 c -0.20748,-0.01276 -0.409651,-0.06636 -0.59532,-0.156349 -0.01327,-0.0064 -0.02561,-0.01425 -0.03862,-0.02103 -0.04222,-0.02195 -0.08374,-0.0458 -0.123943,-0.07153 -0.01796,-0.0115 -0.03543,-0.02357 -0.0529,-0.03574 -0.0407,-0.02846 -0.07999,-0.05892 -0.118063,-0.09126 -0.0099,-0.0084 -0.02041,-0.01583 -0.03004,-0.02439 -0.04625,-0.0413 -0.09004,-0.08584 -0.131551,-0.132889 -0.01159,-0.01316 -0.0221,-0.02728 -0.03325,-0.04078 -0.0315,-0.03816 -0.06156,-0.0778 -0.08967,-0.119378 -0.0098,-0.01444 -0.01958,-0.02872 -0.02891,-0.04348 -0.03507,-0.05573 -0.06825,-0.113213 -0.0968,-0.174458 -0.138616,-0.297229 -0.177277,-0.615324 -0.129384,-0.916518 0,0 4.4e-5,-5.16e-4 4.4e-5,-5.16e-4 0.008,-0.05003 0.0185,-0.09984 0.03117,-0.148744 0.02542,-0.09815 0.0602,-0.193494 0.103788,-0.285045 0.04361,-0.09153 0.096,-0.17908 0.156701,-0.261215 0.06072,-0.08213 0.129942,-0.158945 0.206767,-0.22883 0.11524,-0.104821 0.24795,-0.194239 0.396549,-0.263589 l 0.669136,1.435274 0.540809,-1.485557 c 0.05236,0.01903 0.104073,0.03935 0.154191,0.0638 0.0066,0.0032 0.01271,0.0072 0.01931,0.01051 0.04801,0.02425 0.09488,0.05108 0.140301,0.08023 0.01763,0.01133 0.03477,0.02319 0.0519,0.03516 0.04069,0.02846 0.08,0.05892 0.118064,0.09126 0.0099,0.0084 0.02041,0.01583 0.03005,0.02439 0.04624,0.04129 0.09003,0.08584 0.131551,0.132889 0.01159,0.01316 0.0221,0.02728 0.03324,0.04078 0.0315,0.03816 0.06156,0.07782 0.08967,0.119378 0.0098,0.01444 0.01958,0.02872 0.02891,0.04348 0.03506,0.05573 0.06825,0.113212 0.0968,0.174459 0.138613,0.297226 0.177275,0.615323 0.129384,0.916518 0,0 -4.6e-5,5.14e-4 -4.6e-5,5.14e-4 -0.008,0.05021 -0.01842,0.09966 -0.03117,0.148745 -0.02542,0.09815 -0.0602,0.193494 -0.103787,0.285044 -0.04362,0.09154 -0.09591,0.179129 -0.156701,0.261213 -0.06073,0.08212 -0.129942,0.158946 -0.206766,0.228831 -0.115269,0.10479 -0.247927,0.194294 -0.39655,0.263588 -0.24767,0.115407 -0.510055,0.160915 -0.764877,0.145246 z"
     style="opacity:1;fill:#817e81;fill-opacity:0.4745098;stroke:none;stroke-width:0.26500002;stroke-linecap:round;stroke-linejoin:miter;stroke-miterlimit:4;stroke-dasharray:none;stroke-dashoffset:0;stroke-opacity:1" />
</svg>
